<?xml version="1.0" encoding="UTF-8"?>
<svg width="10px" height="10px" viewBox="0 0 10 10" version="1.1" xmlns="http://www.w3.org/2000/svg" xmlns:xlink="http://www.w3.org/1999/xlink">
    <!-- Generator: Sketch 45.2 (43514) - http://www.bohemiancoding.com/sketch -->
    <title>btn_check_on</title>
    <desc>Created with Sketch.</desc>
    <defs></defs>
    <g id="Page-1" stroke="none" stroke-width="1" fill="none" fill-rule="evenodd">
        <g id="Artboard-2" transform="translate(-62.000000, -155.000000)" fill="#E9EFF4">
            <g id="Material/Light/Checkbox-on" transform="translate(62.000000, 155.000000)">
                <path d="M2,0 L8,0 C9.1045695,-2.02906125e-16 10,0.8954305 10,2 L10,8 C10,9.1045695 9.1045695,10 8,10 L2,10 C0.8954305,10 1.3527075e-16,9.1045695 0,8 L0,2 L0,2 C-1.3527075e-16,0.8954305 0.8954305,2.02906125e-16 2,0 L2,0 Z M7.46325968,3.00051441 C7.31155893,2.99432663 7.15835619,3.04382882 7.04270314,3.1563007 L4.43675461,5.68200425 L2.95729679,4.24826073 C2.84164375,4.13578885 2.68844101,4.08628666 2.53674026,4.09247443 C2.40043488,4.09757025 2.26525599,4.14707244 2.16124335,4.24826073 C2.05685521,4.34908504 2.00578763,4.48012024 2.00053067,4.61224741 C1.99414723,4.75929802 2.04521481,4.90780459 2.16124335,5.02027647 L4.03872789,6.84020985 C4.14837298,6.94685795 4.29256379,7 4.43675461,7 C4.58094542,7 4.72513623,6.94685795 4.83515683,6.84020985 L7.83913208,3.92831644 C7.95478513,3.81584456 8.00585271,3.667338 7.99946926,3.52028738 C7.99421231,3.38816022 7.94314473,3.25712501 7.83913208,3.1563007 C7.73474394,3.05511241 7.59956506,3.00561022 7.46325968,3.00051441 Z" id="Combined-Shape"></path>
            </g>
        </g>
    </g>
</svg>