<?xml version="1.0" encoding="UTF-8"?>
<svg width="44px" height="43px" viewBox="0 0 44 43" version="1.1" xmlns="http://www.w3.org/2000/svg" xmlns:xlink="http://www.w3.org/1999/xlink">
    <!-- Generator: Sketch 46 (44423) - http://www.bohemiancoding.com/sketch -->
    <title>btn_add</title>
    <desc>Created with Sketch.</desc>
    <defs>
        <path d="M3,0 C1.159375,0 0,1.17125 0,3 L0,13 C0,14.8275 1.159375,16 3,16 L17,16 C18.840625,16 20,14.8275 20,13 L20,3 C20,1.17125 18.840625,0 17,0 L3,0 Z" id="path-1"></path>
        <filter x="-90.0%" y="-112.5%" width="280.0%" height="325.0%" filterUnits="objectBoundingBox" id="filter-2">
            <feOffset dx="0" dy="0" in="SourceAlpha" result="shadowOffsetOuter1"></feOffset>
            <feGaussianBlur stdDeviation="6" in="shadowOffsetOuter1" result="shadowBlurOuter1"></feGaussianBlur>
            <feComposite in="shadowBlurOuter1" in2="SourceAlpha" operator="out" result="shadowBlurOuter1"></feComposite>
            <feColorMatrix values="0 0 0 0 0.537254902   0 0 0 0 0.6   0 0 0 0 0.654901961  0 0 0 0.3 0" type="matrix" in="shadowBlurOuter1"></feColorMatrix>
        </filter>
    </defs>
    <g id="Page-1" stroke="none" stroke-width="1" fill="none" fill-rule="evenodd">
        <g id="Artboard-2" transform="translate(-339.000000, -157.000000)">
            <g id="btn_add" transform="translate(351.000000, 171.000000)">
                <g id="Combined-Shape">
                    <use fill="black" fill-opacity="1" filter="url(#filter-2)" xlink:href="#path-1"></use>
                    <use fill="#FFFFFF" fill-rule="evenodd" xlink:href="#path-1"></use>
                    <path stroke="#D3E5ED" stroke-width="1" d="M3,0.5 C1.44010728,0.5 0.5,1.44279128 0.5,3 L0.5,13 C0.5,14.5564429 1.44058902,15.5 3,15.5 L17,15.5 C18.559411,15.5 19.5,14.5564429 19.5,13 L19.5,3 C19.5,1.44279128 18.5598927,0.5 17,0.5 L3,0.5 Z"></path>
                </g>
                <path d="M9.5,7.5 L6.5,7.5 L6.5,7.5 C6.22385763,7.5 6,7.72385763 6,8 C6,8.27614237 6.22385763,8.5 6.5,8.5 L9.5,8.5 L9.5,11.5 C9.5,11.7761424 9.72385763,12 10,12 C10.2761424,12 10.5,11.7761424 10.5,11.5 L10.5,8.5 L13.5,8.5 C13.7761424,8.5 14,8.27614237 14,8 C14,7.72385763 13.7761424,7.5 13.5,7.5 L10.5,7.5 L10.5,4.5 L10.5,4.5 C10.5,4.22385763 10.2761424,4 10,4 L10,4 L10,4 C9.72385763,4 9.5,4.22385763 9.5,4.5 L9.5,7.5 Z" id="Combined-Shape" fill="#00A0E9"></path>
            </g>
        </g>
    </g>
</svg>