<?xml version="1.0" encoding="UTF-8"?>
<svg width="80px" height="80px" viewBox="0 0 80 80" version="1.1" xmlns="http://www.w3.org/2000/svg" xmlns:xlink="http://www.w3.org/1999/xlink">
    <!-- Generator: Sketch 46.2 (44496) - http://www.bohemiancoding.com/sketch -->
    <title>btn_contact</title>
    <desc>Created with Sketch.</desc>
    <defs></defs>
    <g id="Page-1" stroke="none" stroke-width="1" fill="none" fill-rule="evenodd">
        <g id="btn_contact">
            <g id="btn">
                <g id="path-1-link" fill-rule="nonzero" fill="#000000">
                    <rect id="path-1" x="0" y="0" width="80" height="80" rx="40"></rect>
                </g>
                <g id="path-1-link" fill="#FFFFFF">
                    <rect id="path-1" x="0" y="0" width="80" height="80" rx="40"></rect>
                </g>
                <rect id="Rectangle-path" stroke="#E1EBF0" x="0.5" y="0.5" width="79" height="79" rx="39.5"></rect>
            </g>
            <path d="M47,53 L49,53 C49.5522847,53 50,52.5522847 50,52 L50,50 L52,50 L52,40 L50,40 L50,32 C50,31.4477153 49.5522847,31 49,31 L46,31 L46,32 C46,32.5522847 45.5522847,33 45,33 L35,33 C34.4477153,33 34,32.5522847 34,32 L34,31 L31,31 C30.4477153,31 30,31.4477153 30,32 L30,52 C30,52.5522847 30.4477153,53 31,53 L37,53 L37,55 L47,55 L47,53 Z M36,29 C36,26.790861 37.790861,25 40,25 C42.209139,25 44,26.790861 44,29 L49,29 C50.6568542,29 52,30.3431458 52,32 L52,52 C52,53.6568542 50.6568542,55 49,55 L31,55 C29.3431458,55 28,53.6568542 28,52 L28,32 C28,30.3431458 29.3431458,29 31,29 L31,29 L36,29 Z M40,31 C41.1045695,31 42,30.1045695 42,29 C42,27.8954305 41.1045695,27 40,27 C38.8954305,27 38,27.8954305 38,29 C38,30.1045695 38.8954305,31 40,31 Z M34.5,37 L45.5,37 C45.7761424,37 46,37.2238576 46,37.5 C46,37.7761424 45.7761424,38 45.5,38 L34.5,38 C34.2238576,38 34,37.7761424 34,37.5 C34,37.2238576 34.2238576,37 34.5,37 Z M34.5,41 L41.5,41 C41.7761424,41 42,41.2238576 42,41.5 C42,41.7761424 41.7761424,42 41.5,42 L34.5,42 C34.2238576,42 34,41.7761424 34,41.5 C34,41.2238576 34.2238576,41 34.5,41 Z M34.5,45 L39.5,45 C39.7761424,45 40,45.2238576 40,45.5 C40,45.7761424 39.7761424,46 39.5,46 L34.5,46 C34.2238576,46 34,45.7761424 34,45.5 C34,45.2238576 34.2238576,45 34.5,45 Z M40,52.7211344 L46.7211344,46 L49,48.2788656 L42.2788656,55 L40,55 L40,52.7211344 Z M51.8007663,45.7535121 L50.5542784,47 L48,44.4457216 L49.2464879,43.1992337 C49.5121328,42.9335888 49.9412516,42.9335888 50.2068966,43.1992337 L51.8007663,44.7931034 C52.0664112,45.0587484 52.0664112,45.4878672 51.8007663,45.7535121 Z" id="Combined-Shape" fill="#00A0E9"></path>
        </g>
    </g>
</svg>