<?xml version="1.0" encoding="UTF-8"?>
<svg width="12px" height="12px" viewBox="0 0 12 12" version="1.1" xmlns="http://www.w3.org/2000/svg" xmlns:xlink="http://www.w3.org/1999/xlink">
    <!-- Generator: Sketch 45.2 (43514) - http://www.bohemiancoding.com/sketch -->
    <title>icon_faq</title>
    <desc>Created with Sketch.</desc>
    <defs></defs>
    <g id="Page-1" stroke="none" stroke-width="1" fill="none" fill-rule="evenodd">
        <g id="Artboard-2" transform="translate(-76.000000, -261.000000)" fill="#C6D4E1">
            <path d="M81.9196384,261.000543 C78.6070266,261.044676 75.9564102,263.767091 76.0005432,267.08102 C76.0446762,270.392973 78.7670911,273.04359 82.0803616,273.000115 C85.3929734,272.955324 88.0435898,270.232909 87.9994568,266.919638 C87.9553238,263.607027 85.2335676,260.95641 81.9196384,261.000543 L81.9196384,261.000543 Z M81.9025121,270.652502 L81.8689183,270.651843 C81.3590831,270.636693 80.9994318,270.260574 81.0139233,269.757985 C81.027756,269.263958 81.3959704,268.905625 81.8899968,268.905625 L81.9189797,268.905625 C82.4439651,268.921433 82.7996641,269.292941 82.7845139,269.810681 C82.7700225,270.306025 82.4077365,270.652502 81.9025121,270.652502 L81.9025121,270.652502 Z M84.0492216,266.392018 C83.9286791,266.562622 83.6651984,266.774065 83.3325539,267.033594 L82.9663157,267.286535 C82.7647529,267.442648 82.6442104,267.589538 82.5981013,267.734453 C82.5618727,267.848408 82.5447465,267.878708 82.541453,268.109913 L82.5407942,268.169196 L81.1430288,268.169196 L81.1469811,268.05063 C81.1641073,267.564508 81.1759639,267.277972 81.3775267,267.041498 C81.6937036,266.670649 82.3912689,266.220756 82.4209105,266.202312 C82.5203745,266.12722 82.605347,266.04093 82.6679237,265.950029 C82.8148142,265.747808 82.879367,265.588402 82.879367,265.431631 C82.879367,265.214259 82.8148142,265.013355 82.6876848,264.834847 C82.5645075,264.662267 82.3326445,264.57466 81.9960478,264.57466 C81.6620859,264.57466 81.4335164,264.680711 81.2965064,264.897424 C81.1555442,265.120724 81.0850631,265.35588 81.0850631,265.595648 L81.0850631,265.655589 L79.6438233,265.655589 L79.6464582,265.593013 C79.6840042,264.710352 79.9988637,264.074046 80.5824735,263.703197 C80.9500292,263.467382 81.4065096,263.347498 81.9393994,263.347498 C82.6369647,263.347498 83.2251855,263.516784 83.6889116,263.851405 C84.1579074,264.189978 84.3963575,264.697178 84.3963575,265.358515 C84.3963575,265.728705 84.2791085,266.0765 84.0492216,266.392018 L84.0492216,266.392018 Z" id="icon_faq"></path>
        </g>
    </g>
</svg>