<?xml version="1.0" encoding="UTF-8"?>
<svg width="20px" height="20px" viewBox="0 0 20 20" version="1.1" xmlns="http://www.w3.org/2000/svg" xmlns:xlink="http://www.w3.org/1999/xlink">
    <!-- Generator: Sketch 46.1 (44463) - http://www.bohemiancoding.com/sketch -->
    <title>icon-2</title>
    <desc>Created with Sketch.</desc>
    <defs></defs>
    <g id="Page-1" stroke="none" stroke-width="1" fill="none" fill-rule="evenodd">
        <g id="Artboard-2" transform="translate(-689.000000, -167.000000)" fill="#C6D4E1">
            <path d="M701.5,181.091875 L701.5,185 L696.5,185 L696.5,181.091875 C695.008333,180.246875 694,178.67875 694,176.875 C694,174.185625 696.241667,172 699,172 C701.758333,172 704,174.185625 704,176.875 C704,178.67875 702.991667,180.246875 701.5,181.091875 Z M691.55,170.732697 L692.96,169.386635 L694.75,171.105012 L693.34,172.451074 L691.55,170.732697 Z M698,167 L700,167 L700,169.816229 L698,169.816229 L698,167 Z M692,178 L689,178 L689,176.090692 L692,176.090692 L692,178 Z M706,178 L706,176.090692 L709,176.090692 L709,178 L706,178 Z M703.24,171.095465 L705.03,169.377088 L706.44,170.72315 L704.64,172.431981 L703.24,171.095465 Z" id="Combined-Shape"></path>
        </g>
    </g>
</svg>