<?xml version="1.0" encoding="UTF-8"?>
<svg width="104px" height="30px" viewBox="0 0 104 30" version="1.1" xmlns="http://www.w3.org/2000/svg" xmlns:xlink="http://www.w3.org/1999/xlink">
    <!-- Generator: Sketch 45.2 (43514) - http://www.bohemiancoding.com/sketch -->
    <title>img_logo</title>
    <desc>Created with Sketch.</desc>
    <defs></defs>
    <g id="Page-1" stroke="none" stroke-width="1" fill="none" fill-rule="evenodd">
        <g id="Artboard-2" transform="translate(-415.000000, -164.000000)" fill="#00A0E9">
            <path d="M494.76699,182.544035 L494.76699,184.357143 L493.98272,184.357143 C493.98272,184.357143 491.741039,184.357143 491.741039,182.544035 C491.739452,182.539441 491.737864,182.536378 491.737864,182.531784 C491.745802,181.764582 492.417354,181.142857 493.247664,181.142857 C494.08115,181.142857 494.76699,181.770707 494.76699,182.544035 Z M496.786408,168.285714 C498.548841,168.285714 499.815534,169.182471 499.815534,169.182471 L499.815534,184.357143 C498.053101,184.357143 496.786408,183.462141 496.786408,183.462141 L496.786408,168.285714 Z M482.650485,168.285714 C487.111815,168.285714 490.728155,171.883271 490.728155,176.321429 L490.728155,184.357143 C488.38018,184.357143 486.690202,183.28314 486.690202,183.28314 L486.690202,183.279631 C485.50122,183.964044 484.121719,184.357143 482.650485,184.357143 C478.189156,184.357143 474.572816,180.759586 474.572816,176.321429 C474.572816,171.883271 478.189156,168.285714 482.650485,168.285714 Z M448.320388,176.857143 L448.320388,186.143637 C448.320388,190.482701 444.704048,194 440.242718,194 C436.10245,194 432.688977,190.969394 432.219735,187.06274 C433.84797,186.083736 435.530891,186.143637 435.530891,186.143637 C435.530891,188.674445 437.640717,190.726047 440.242718,190.726047 C442.84472,190.726047 444.954546,188.674445 444.954546,186.143637 L444.954546,183.816866 C443.627966,184.829564 442.001495,185.428571 440.242718,185.428571 C435.781389,185.428571 432.165049,181.591177 432.165049,176.857143 C432.165049,172.123109 435.781389,168.285714 440.242718,168.285714 C442.001495,168.285714 443.627966,168.884722 444.954546,169.89742 L444.954546,169.893676 C444.954546,169.893676 446.425779,169.116838 448.320388,169.116838 L448.320388,176.857143 Z M458.417476,168.285714 C462.878805,168.285714 466.495146,171.883271 466.495146,176.321429 C466.495146,180.759586 462.878805,184.357143 458.417476,184.357143 C453.956146,184.357143 450.339806,180.759586 450.339806,176.321429 C450.339806,171.883271 453.956146,168.285714 458.417476,168.285714 Z M502.84466,176.321429 C502.84466,171.883271 506.461001,168.285714 510.92233,168.285714 C515.383659,168.285714 519,171.883271 519,176.321429 C519,180.759586 515.383659,184.357143 510.92233,184.357143 C506.461001,184.357143 502.84466,180.759586 502.84466,176.321429 Z M422.667591,168.128682 C426.902432,168.128682 430.335182,171.761391 430.335182,176.242912 L430.335182,184.357143 C428.106406,184.357143 426.502223,183.272646 426.502223,183.272646 L426.502223,183.269102 C425.373602,183.960203 424.064134,184.357143 422.667591,184.357143 C418.43275,184.357143 415,180.724434 415,176.242912 C415,171.761391 418.43275,168.128682 422.667591,168.128682 Z M430.415265,169.939418 C430.452751,170.220711 430.267025,170.480366 430.001215,170.520036 C429.350322,170.633635 429.454261,169.450761 426.453677,167.907254 C424.843483,167.139107 423.269071,167.050752 422.343848,167.103043 C422.038848,167.112059 421.834379,166.944365 421.798597,166.664875 C421.755999,166.167202 422.202424,166.082453 422.202424,166.082453 C426.784235,165.820995 429.445741,168.64655 430.270433,169.629274 C430.401634,169.802377 430.406746,169.892535 430.415265,169.939418 Z M432.160239,168.86329 C432.197725,169.144584 432.011999,169.404239 431.746189,169.443909 C431.545127,169.474562 431.355994,169.368176 431.258871,169.193269 C431.258871,169.193269 429.781582,167.090782 426.970132,165.88086 C425.610412,165.294832 423.824715,164.889121 421.98279,165.056815 C421.693125,165.065831 421.471617,164.89994 421.434131,164.618646 C421.396645,164.337353 421.580667,164.079501 421.848181,164.036225 C428.498538,163.524127 432.054596,168.610848 432.054596,168.610848 C432.109121,168.681171 432.146607,168.76592 432.160239,168.86329 Z M467.504854,168.285714 C469.291174,168.285714 470.270508,169.361472 470.270508,169.361472 C471.481791,168.412068 472.9669,168.285714 474.572816,168.315548 C474.564762,170.247699 473.89308,171.562124 473.89308,171.562124 C472.575488,171.562124 471.48018,172.135978 470.868096,173.439873 C470.450912,174.32961 470.312388,175.558044 470.270508,177.179578 L470.270508,184.357143 C468.482578,184.357143 467.504854,183.462141 467.504854,183.462141 L467.504854,168.285714 Z M487.69925,181.343969 L486.886014,179.050307 C487.397594,178.264109 487.69925,177.328745 487.69925,176.321429 C487.69925,173.548677 485.439478,171.298888 482.650485,171.298888 C479.863257,171.298888 477.601721,173.548677 477.601721,176.321429 C477.601721,179.095935 479.863257,181.343969 482.650485,181.343969 C483.663061,181.343969 484.603309,181.04388 485.393612,180.534958 L487.69925,181.343969 Z M440.242718,182.21452 C443.031711,182.21452 445.291483,179.816616 445.291483,176.857143 C445.291483,173.899541 443.031711,171.499766 440.242718,171.499766 C437.453726,171.499766 435.193954,173.899541 435.193954,176.857143 C435.193954,179.816616 437.453726,182.21452 440.242718,182.21452 Z M458.417476,181.343969 C461.206468,181.343969 463.46624,179.095935 463.46624,176.321429 C463.46624,173.548677 461.206468,171.298888 458.417476,171.298888 C455.628483,171.298888 453.368712,173.548677 453.368712,176.321429 C453.368712,179.095935 455.628483,181.343969 458.417476,181.343969 Z M510.92233,181.343969 C513.711322,181.343969 515.971094,179.095935 515.971094,176.321429 C515.971094,173.548677 513.711322,171.298888 510.92233,171.298888 C508.133338,171.298888 505.873566,173.548677 505.873566,176.321429 C505.873566,179.095935 508.133338,181.343969 510.92233,181.343969 Z M427.678787,181.546013 L426.893285,179.18928 C427.387419,178.381463 427.678787,177.420377 427.678787,176.385362 C427.678787,173.536366 425.49608,171.224712 422.8022,171.224712 C420.110023,171.224712 417.925612,173.536366 417.925612,176.385362 C417.925612,179.236162 420.110023,181.546013 422.8022,181.546013 C423.780243,181.546013 424.688427,181.237672 425.451778,180.714755 L427.678787,181.546013 Z M422.8022,169.160091 C422.532982,169.160091 422.314882,169.392699 422.314882,169.677599 C422.314882,169.962498 422.532982,170.193303 422.8022,170.193303 C424.373204,170.193303 425.795968,170.867686 426.825129,171.956796 L426.826833,171.954993 C427.017671,172.146128 427.317559,172.144325 427.504989,171.945977 C427.690715,171.747629 427.694123,171.430272 427.513508,171.228318 L427.515212,171.226515 C426.308845,169.949876 424.642421,169.160091 422.8022,169.160091 Z" id="img_logo"></path>
        </g>
    </g>
</svg>