<?xml version="1.0" encoding="UTF-8"?>
<svg width="103px" height="30px" viewBox="0 0 103 30" version="1.1" xmlns="http://www.w3.org/2000/svg" xmlns:xlink="http://www.w3.org/1999/xlink">
    <!-- Generator: Sketch 45.2 (43514) - http://www.bohemiancoding.com/sketch -->
    <title>Group 5</title>
    <desc>Created with Sketch.</desc>
    <defs></defs>
    <g id="Symbols" stroke="none" stroke-width="1" fill="none" fill-rule="evenodd">
        <g id="logo" transform="translate(-61.000000, -32.000000)" fill="#00A0E9">
            <g id="Group-5" transform="translate(61.000000, 32.000000)">
                <path d="M79,18.5440346 C79,17.7707071 78.3207547,17.1428571 77.495283,17.1428571 C76.672956,17.1428571 76.0078616,17.7645818 76,18.5317838 C76,18.5363779 76.0015723,18.5394405 76.0031447,18.5440346 C76.0031447,20.3571429 78.2232704,20.3571429 78.2232704,20.3571429 L79,20.3571429 L79,18.5440346 Z" id="Fill-29"></path>
                <path d="M81,4.28571429 L81,19.4621408 C81,19.4621408 82.2545137,20.3571429 84,20.3571429 L84,5.18247122 C84,5.18247122 82.7454863,4.28571429 81,4.28571429" id="Fill-30"></path>
                <path d="M72.0002184,17.3439694 L69.7167504,16.5349577 C68.9340467,17.0438804 68.002839,17.3439694 67,17.3439694 C64.239572,17.3439694 61.9997816,15.0959349 61.9997816,12.3214286 C61.9997816,9.54867719 64.239572,7.29888778 67,7.29888778 C69.7621751,7.29888778 72.0002184,9.54867719 72.0002184,12.3214286 C72.0002184,13.3287446 71.7014632,14.2641094 71.1948024,15.0503073 L72.0002184,17.3439694 Z M67,4.28571429 C62.581568,4.28571429 59,7.88327146 59,12.3214286 C59,16.7595857 62.581568,20.3571429 67,20.3571429 C68.4570867,20.3571429 69.8233239,19.9640439 71.0008736,19.2796306 L71.0008736,19.2831404 C71.0008736,19.2831404 72.6746014,20.3571429 75,20.3571429 L75,12.3214286 C75,7.88327146 71.418432,4.28571429 67,4.28571429 L67,4.28571429 Z" id="Fill-31"></path>
                <path d="M25,18.2145197 C22.2378249,18.2145197 19.9997816,15.8166162 19.9997816,12.8571429 C19.9997816,9.89954138 22.2378249,7.49976601 25,7.49976601 C27.7621751,7.49976601 30.0002184,9.89954138 30.0002184,12.8571429 C30.0002184,15.8166162 27.7621751,18.2145197 25,18.2145197 L25,18.2145197 Z M33,12.8571429 L33,12.8571429 L33,12.8571429 L33,5.11683774 C31.1236078,5.11683774 29.6665211,5.8936761 29.6665211,5.8936761 L29.6665211,5.8974199 C28.3526971,4.88472218 26.741865,4.28571429 25,4.28571429 C20.581568,4.28571429 17,8.1231086 17,12.8571429 C17,17.5911771 20.581568,21.4285714 25,21.4285714 C26.741865,21.4285714 28.3526971,20.8295635 29.6665211,19.8168658 L29.6665211,22.1436371 C29.6665211,24.6744454 27.5769819,26.7260475 25,26.7260475 C22.4230181,26.7260475 20.3334789,24.6744454 20.3334789,22.1436371 C20.3334789,22.1436371 18.6667395,22.0837363 17.0541603,23.0627398 C17.5188906,26.9693944 20.8995414,30 25,30 C29.418432,30 33,26.4827005 33,22.1436371 L33,22.1436371 L33,12.8571429 Z" id="Fill-32"></path>
                <path d="M43,17.3439694 C40.2378249,17.3439694 37.9997816,15.0959349 37.9997816,12.3214286 C37.9997816,9.54867719 40.2378249,7.29888778 43,7.29888778 C45.7621751,7.29888778 48.0002184,9.54867719 48.0002184,12.3214286 C48.0002184,15.0959349 45.7621751,17.3439694 43,17.3439694 M43,4.28571429 C38.581568,4.28571429 35,7.88327146 35,12.3214286 C35,16.7595857 38.581568,20.3571429 43,20.3571429 C47.418432,20.3571429 51,16.7595857 51,12.3214286 C51,7.88327146 47.418432,4.28571429 43,4.28571429" id="Fill-33"></path>
                <path d="M95,17.3439694 C92.2378249,17.3439694 89.9997816,15.0959349 89.9997816,12.3214286 C89.9997816,9.54867719 92.2378249,7.29888778 95,7.29888778 C97.7621751,7.29888778 100.000218,9.54867719 100.000218,12.3214286 C100.000218,15.0959349 97.7621751,17.3439694 95,17.3439694 M87,12.3214286 C87,16.7595857 90.581568,20.3571429 95,20.3571429 C99.418432,20.3571429 103,16.7595857 103,12.3214286 C103,7.88327146 99.418432,4.28571429 95,4.28571429 C90.581568,4.28571429 87,7.88327146 87,12.3214286 Z" id="Fill-34"></path>
                <path d="M12.556876,17.5460128 L10.3512804,16.714755 C9.59526904,17.2376721 8.69581804,17.5460128 7.7271785,17.5460128 C5.06088847,17.5460128 2.89748099,15.2361619 2.89748099,12.3853623 C2.89748099,9.53636585 5.06088847,7.22471177 7.7271785,7.22471177 C10.395156,7.22471177 12.556876,9.53636585 12.556876,12.3853623 C12.556876,13.4203775 12.2683092,14.381463 11.7789268,15.1892797 L12.556876,17.5460128 Z M7.7271785,5.16009093 C9.54970585,5.16009093 11.2001056,5.94987602 12.3948736,7.22651493 L12.393186,7.22831809 C12.5720637,7.43027227 12.5686887,7.74762884 12.3847484,7.94597669 C12.1991206,8.14432455 11.9021162,8.14612771 11.7131133,7.9549925 L11.7114258,7.95679567 C10.6921605,6.86768563 9.28307685,6.19330293 7.7271785,6.19330293 L7.7271785,6.19330293 C7.46054949,6.19330293 7.24454625,5.96249815 7.24454625,5.67759851 C7.24454625,5.39269886 7.46054949,5.16009093 7.7271785,5.16009093 L7.7271785,5.16009093 Z M7.59386399,4.12868209 C11.7879854,4.12868209 15.187728,7.7613906 15.187728,12.2429125 L15.187728,20.3571429 C12.9803829,20.3571429 11.3916252,19.2726465 11.3916252,19.2726465 L11.3916252,19.2691024 C10.2738562,19.960203 8.97697877,20.3571429 7.59386399,20.3571429 C3.39974256,20.3571429 0,16.7244343 0,12.2429125 C0,7.7613906 3.39974256,4.12868209 7.59386399,4.12868209 Z M15.2670417,5.93941768 C15.3041672,6.220711 15.120227,6.48036637 14.856973,6.52003594 C14.2123383,6.63363516 14.3152774,5.45076069 11.3435453,3.90725375 C9.74883384,3.13910661 8.18956044,3.05075166 7.27323418,3.10304336 C6.97116715,3.11205918 6.76866411,2.94436508 6.73322607,2.66487492 C6.69103794,2.16720213 7.13316958,2.0824535 7.13316958,2.0824535 C11.6709252,1.82099496 14.3068398,4.6465503 15.123602,5.62927376 C15.2535415,5.80237734 15.2586041,5.89253546 15.2670417,5.93941768 Z M16.9952364,4.86329041 C17.0323619,5.14458373 16.8484217,5.4042391 16.5851677,5.44390867 C16.3860397,5.47456243 16.1987244,5.36817586 16.1025355,5.19326911 C16.1025355,5.19326911 14.639451,3.09078186 11.8550342,1.88085995 C10.508389,1.2948322 8.73986245,0.889120683 6.91564756,1.05681478 C6.62876826,1.06583059 6.40938996,0.899939657 6.37226441,0.618646337 C6.33513885,0.337353017 6.51739158,0.0795008069 6.78233306,0.0362249115 C13.3687444,-0.475873184 16.8906098,4.61084769 16.8906098,4.61084769 C16.9446106,4.68117102 16.9817362,4.76591965 16.9952364,4.86329041 Z" id="Combined-Shape"></path>
                <path d="M52,4.28571429 L52,19.4621408 C52,19.4621408 52.9683227,20.3571429 54.7390611,20.3571429 L54.7390611,13.1795776 C54.7805378,11.5580445 54.9177302,10.3296103 55.3309025,9.43987302 C55.9371012,8.13597791 57.0218778,7.56212367 58.3268004,7.56212367 C58.3268004,7.56212367 58.9920237,6.24769912 59,4.31554769 C57.409526,4.28571429 55.9386964,4.41206751 54.7390611,5.36147163 C54.7390611,5.36147163 53.7691431,4.28571429 52,4.28571429 Z" id="Fill-38"></path>
            </g>
        </g>
    </g>
</svg>